ply
format ascii 1.0
element vertex 9
comment vertices
property float x
property float y
property float z
end_header
-0.0416509993374347687 0.237284004688262939 -0.0164285004138946533
0.112300999462604523 0.0501765012741088867 -0.00421399995684623718
0.286374002695083618 0.088763996958732605 0.105317503213882446
-0.0254174992442131042 0.44368898868560791 -0.00489850016310811043
0.169328495860099792 0.244659498333930969 -0.0156984999775886536
0.391761511564254761 0.262556493282318115 0.0230320002883672714
-0.0420815013349056244 0.0873114988207817078 -0.00860099960118532181
0.215651005506515503 0.454745501279830933 -0.0422109998762607574
-0.161725997924804688 0.14646950364112854 0.0294094998389482498
